<svg id="Layer_1" data-name="Layer 1" xmlns="http://www.w3.org/2000/svg" viewBox="0 0 426 100"><path d="M13.94,17.65H35.31a60.21,60.21,0,0,1,9.54.57,15.78,15.78,0,0,1,6.69,3.09,16.66,16.66,0,0,1,5.31,6.87A24,24,0,0,1,58.77,38q0,12.75-9.57,17.93L61.7,85.63H45.44l-9.09-26.9H28.88v26.9H13.94Zm14.94,11V47.73h6.58q8.76,0,8.76-9.81a10.77,10.77,0,0,0-1.29-5.56,7.08,7.08,0,0,0-3-2.94,13,13,0,0,0-5.06-.77Zm40.64-11h41.34V29.3H84.47V45.09H105V56.74H84.47V73.48h26.39V85.63H69.52Zm90.25,14.79-12.35,4.73q-2.64-8.42-9.66-8.42a7.12,7.12,0,0,0-5.21,1.87A5.89,5.89,0,0,0,130.63,35a5.48,5.48,0,0,0,2.27,4.6q2.26,1.72,9.49,4.51a56.45,56.45,0,0,1,10.33,4.83,18.12,18.12,0,0,1,6.08,6.5A19.14,19.14,0,0,1,161.11,65a20.39,20.39,0,0,1-6.54,15.61Q148,86.68,137,86.67q-18.48,0-23.61-18.67l13-3.74q2.38,10.26,10.91,10.26a9.52,9.52,0,0,0,6.3-2,6.59,6.59,0,0,0,2.41-5.31,6.66,6.66,0,0,0-1.69-4.46c-1.13-1.31-3.72-2.69-7.77-4.16a70.52,70.52,0,0,1-11.65-5,18,18,0,0,1-6.33-6.47,18.5,18.5,0,0,1-2.49-9.59q0-9.16,5.9-15t15.62-5.85Q155.39,16.6,159.77,32.44ZM165,17.65h42.38V30.4H193.44V85.63H178.5V30.4H165ZM227.8,48.32q0-12.57,2-16.82t6.37-4.31a6.72,6.72,0,0,1,6.42,4.28q2,4.23,2,16.86,7.4,0,14.8.07,0-16.21-6-24.4t-17.28-8.24q-23.08,0-23.19,32.62Q220.4,48.34,227.8,48.32Zm16.82,6.83q0,12.63-2,16.83a6.71,6.71,0,0,1-6.39,4.26q-4.41,0-6.4-4.45t-2-16.64L213,55.09q.08,15.87,5.85,24.18t17.38,8.4q23.05,0,23.19-32.6Q252,55.13,244.62,55.15Zm26.21-37.5h14.95V72.88h21.91V85.63H270.83Zm78.75,3c-.53-1-1.05-2-1.58-3h0V56.49a83.73,83.73,0,0,1-.5,11.31,7.8,7.8,0,0,1-2.69,4.88,8.89,8.89,0,0,1-5.92,1.84,9.74,9.74,0,0,1-5.8-1.67A7.89,7.89,0,0,1,330,68q-.75-3.24-.74-11.46V17.65H314.26V56.49q0,13.54,2.15,18.9a16.42,16.42,0,0,0,7.22,8.32q5.07,3,13.94,3,9.46,0,14.87-4A16.77,16.77,0,0,0,359.16,73q1.32-5.62,1.32-17.08V41Q355,30.82,349.58,20.64Z"/><path d="M365.41,17.65h16.67l8.08,17.62,8.54-17.62H413L397,48.4l18.13,37.23H398.72L388.8,63.47,377.68,85.63H363.36L382,50.79Z"/></svg>